<svg preserveAspectRatio="none" overflow="visible" style="display: block;" width="20" height="20" viewBox="0 0 20 20" fill="none" xmlns="http://www.w3.org/2000/svg">
<g id="cerebro-emocional">
<g id="Group">
<g id="Group_2">
<path id="Vector" d="M9.61406 14.0156C9.61406 14.0156 9.90625 15.2594 11.525 16.1844C12.5453 16.7672 14.6906 17.3719 15.7859 16.5625C17.0328 15.6406 17.3016 14.7281 17.3609 14.3922C17.4203 14.0563 17.2422 13.1297 17.2422 13.1297L15.1906 12.4C15.1906 12.4 11.7984 13.2281 11.7391 13.2281C11.6813 13.2297 9.61406 14.0156 9.61406 14.0156Z" fill="#E06767"/>
</g>
<g id="Group_3">
<path id="Vector_2" d="M17.2484 14.7922C17.2938 14.675 17.3219 14.575 17.3422 14.4922C16.9797 14.3953 16.5594 14.2391 16.1781 14.0766C16.2094 14.0625 16.2406 14.0484 16.2703 14.0328C16.4578 13.9375 16.6422 13.8266 16.775 13.6641C16.9188 13.4891 16.9844 13.2625 16.9766 13.0359L15.1906 12.4C15.1906 12.4 11.7984 13.2281 11.7391 13.2281C11.6797 13.2281 9.61406 14.0141 9.6125 14.0156C9.58594 14.025 9.80469 14.4844 9.81875 14.5078C10.0172 14.8781 10.4734 15.3938 10.7859 15.6734C10.7859 15.6734 10.6422 15.3422 10.9141 15.2188C11.0344 15.1641 11.1797 15.1906 11.3031 15.2391C11.6125 15.3625 12 15.8375 12.9688 16.3469C13.6266 16.6938 14.3031 16.9594 14.5219 16.95C14.8141 16.9375 15.3437 16.7953 15.3437 16.7953C15.3437 16.7953 14.6688 16.7313 13.5844 16.2266C13.2563 16.0734 12.0422 15.4766 11.9266 15.1438C11.8938 15.05 11.7766 14.8844 11.9891 14.7906C12.3141 14.6453 13.2 15.4094 13.9609 15.7594C14.8672 16.175 15.8547 16.5078 15.8547 16.5078C15.9609 16.4266 16.0609 16.3453 16.1547 16.2641C15.65 16.1344 15.1562 15.9563 14.6797 15.7484C14.2047 15.5422 13.7391 15.275 13.3094 14.9813C13.0359 14.7938 12.8469 14.4781 13.1406 14.4375C13.6219 14.3703 14.2438 14.8281 14.8672 15.1516C15.4297 15.4438 16.1047 15.5781 16.7375 15.6578C16.8188 15.5563 16.9516 15.3625 16.9516 15.3625C16.9516 15.3625 16.7125 15.3219 16.0063 15.1656C15.6969 15.0969 15.3969 15.0078 15.1219 14.8531C15.05 14.8125 14.7984 14.5547 15.1422 14.4359C15.4859 14.3172 15.8125 14.5531 16.3312 14.6734C16.8516 14.7969 17.2438 14.8031 17.2484 14.7922Z" fill="#055C40"/>
</g>
<path id="Vector_3" d="M18.4375 8.32812C18.4375 8.32812 18.3984 7.0625 17.7188 5.94219C17.1328 4.97656 16.2969 4.87812 16.2969 4.87812C16.2969 4.87812 16.1312 4.27031 15.55 3.80469C14.9687 3.33906 13.7734 2.95 13.7734 2.95C11.3797 1.87187 9.8875 2.75469 9.8875 2.75469C9.8875 2.75469 6.3375 1.91094 3.49531 4.32188C3.49531 4.32188 2.06094 4.99688 1.475 6.27188C1.15156 6.97813 1.29063 8.12969 1.29063 8.12969C0.295313 9.28594 0.56875 11.1172 1.68594 12.0344C2.21875 12.4703 2.87656 12.7594 3.5625 12.8328C3.83125 12.8609 3.96719 12.7969 4.07969 13.0703C4.24531 13.4734 4.375 13.8875 4.70781 14.1766C5.04687 14.4703 5.44219 14.6984 5.8625 14.8547C6.67812 15.1563 7.6 15.1891 8.42344 14.8938C8.69687 14.7953 9.57344 14.7859 9.57344 14.7859C9.57344 14.7859 10.0375 15.1688 11.6844 15.1078C13.3313 15.0469 14.0266 14.3359 14.4031 14.2031C14.6922 14.1016 15.0469 13.8781 15.3625 13.9359C15.5422 13.9688 15.7031 14.0609 15.8672 14.1391C16.3266 14.3594 16.8422 14.4797 17.3484 14.4328C19.2625 14.2563 19.4641 12.0516 19.275 10.5359C19.0844 9.00625 18.4375 8.32812 18.4375 8.32812Z" fill="#FFB3B3"/>
<path id="Vector_4" d="M4.3 11.3203C4.26094 11.4094 3.87031 12.2625 3.54219 12.4C2.975 12.6391 2.09688 12.0703 1.76094 11.9141C1.69531 11.8828 1.65156 11.9609 1.65156 11.9609C1.59687 12.0313 1.73906 12.1766 1.81094 12.2281C2.08906 12.4281 2.75625 12.8813 3.25156 13.0047C3.89062 13.1641 4.37031 13.0047 4.37031 13.0047C4.37031 13.0047 4.54531 11.725 4.55938 11.6672C4.57344 11.6094 4.55938 11.1 4.55938 11.1L4.3 11.3203Z" fill="#EA6363"/>
<g id="Group_4">
<g id="Group_5">
<path id="Vector_5" d="M9.88281 14.9312C9.88281 14.9312 9.56094 14.8813 9.06719 14.8891C8.57344 14.8969 7.87812 15.0391 7.87812 15.0391C7.87812 15.0391 8.36875 14.8156 8.5875 14.6203C8.80625 14.4234 8.85 13.9453 8.81406 13.6609C8.77656 13.3703 8.67812 13.2234 7.93437 13.0688L10.1625 12.9453C9.41563 13.4422 9.27969 14.4656 9.88281 14.9312Z" fill="#F07371"/>
</g>
<g id="Group_6">
<path id="Vector_6" d="M16.6281 10.2297C16.2406 10.2812 15.8641 10.2078 15.5297 10.0094C15.3844 9.92187 15.3687 9.71562 15.4969 9.60469C15.5828 9.53125 15.7062 9.52656 15.8016 9.58906C16.3422 9.94375 16.8922 9.71094 17.1859 9.52812C17.9359 9.06094 18.3078 8.23281 18.2578 7.36406C18.4078 7.62969 18.5172 7.92344 18.5437 8.22656C18.6109 8.9625 18.0812 9.53594 17.4891 9.90625C17.2062 10.0844 16.9141 10.1922 16.6281 10.2297Z" fill="#F07371"/>
</g>
<g id="Group_7">
<path id="Vector_7" d="M18.3031 10.9625C18.1344 10.9625 17.9516 10.9266 17.7781 10.8203C17.6 10.7109 17.5 10.5641 17.4109 10.3828C17.3375 10.2344 17.2344 10.1422 17.0453 10.1562C16.9125 10.1672 16.7844 10.2422 16.6516 10.2234C16.8281 9.91094 17.1109 9.66094 17.4437 9.525C17.5969 9.4625 17.7687 9.42344 17.925 9.47187C17.9422 9.58125 17.8687 9.68281 17.8266 9.78594C17.7531 9.96875 17.7828 10.1875 17.9016 10.3437C17.9828 10.45 18.1375 10.5641 18.2797 10.5547C18.3734 10.5484 18.4391 10.4687 18.5312 10.4609C18.8172 10.4406 18.8891 10.8594 18.6078 10.925C18.5172 10.9469 18.4141 10.9625 18.3031 10.9625Z" fill="#F07371"/>
</g>
<g id="Group_8">
<path id="Vector_8" d="M15.5531 5.16875C15.4391 5.18281 15.3234 5.17031 15.2641 5.07031C15.1875 4.94063 15.2516 4.77813 15.3937 4.72813C15.7859 4.59063 16.2266 4.61563 16.6094 4.76875C16.9437 4.90313 17.1453 5.13125 17.2781 5.28594C17.4109 5.44063 17.5016 5.74687 17.5016 5.74687C17.1687 5.45781 16.9797 5.00313 15.5531 5.16875Z" fill="#F07371"/>
</g>
<path id="Vector_9" d="M14.0562 4.86719C13.7187 4.85312 14.0469 4.86719 14.0437 4.86719C13.5094 4.86719 12.8703 4.68281 12.7844 4.07344C12.6297 2.96406 14.2672 3.39531 14.8672 3.47812C14.8672 3.47812 14.3937 2.99219 13.7734 2.95C13.4844 2.93125 13.1859 2.93906 12.9047 3.01406C12.5953 3.09688 12.4391 3.32969 12.1578 3.44531C11.9453 3.53125 11.7031 3.49844 11.4844 3.43281C11.2828 3.37187 10.6281 3.02031 10.6094 3.45781C10.6047 3.57812 10.6906 3.68125 10.8078 3.69844C11.2828 3.76562 11.9391 3.97813 12.1828 4.43125C12.2953 4.63906 12.3219 4.89062 12.2562 5.11719C12.225 5.22812 12.1797 5.37031 12.2719 5.44062C12.3422 5.49531 12.45 5.45938 12.5141 5.39688C12.5781 5.33438 12.6187 5.25 12.6828 5.1875C12.8828 4.99063 13.0641 5.13125 13.2766 5.20625C13.5219 5.29375 13.7813 5.33594 14.0422 5.33594C14.0484 5.33594 13.5844 5.29063 14.0594 5.33594C14.5328 5.37969 14.3922 4.88125 14.0562 4.86719Z" fill="#F07371"/>
<path id="Vector_10" d="M6.54531 4.35781C6.28594 4.12344 6.1625 3.21094 6.90781 2.74063C6.90781 2.74063 6.50156 2.75469 6.1625 3.02031C5.87344 3.24687 5.81562 3.63906 5.88437 4.05313C5.90156 4.15938 5.81875 4.25625 5.71094 4.25C5.32344 4.22969 4.9375 4.3 4.60469 4.45312C4.47812 4.5125 4.43437 4.67187 4.50937 4.79062C4.57344 4.89062 4.7 4.925 4.80781 4.875C5.18125 4.70313 5.725 4.61094 6.16094 4.72031C6.60312 4.83125 6.91406 4.95938 7.26094 5.56094C7.32031 5.6625 7.44844 5.69844 7.54531 5.63281C7.62031 5.58125 7.65156 5.48438 7.62031 5.4C7.32344 4.58125 6.89531 4.67344 6.54531 4.35781Z" fill="#F07371"/>
<path id="Vector_11" d="M7.5125 7.17188C7.475 7.04375 7.34375 6.97344 7.22031 7.01094C6.84531 7.12344 6.30313 7.09063 6.06094 6.84688C5.7375 6.09844 5.49219 5.96563 5.1 5.83281C4.94375 5.77969 4.7875 5.91406 4.80313 6.07656C4.8125 6.16875 4.87344 6.24688 4.9625 6.27344C5.24063 6.35625 5.52031 6.72969 5.66406 7.11094C5.79531 7.45625 5.81094 7.91094 5.51406 8.23594C5.4375 8.32031 5.42188 8.44219 5.48906 8.53437L5.49219 8.53906C5.57813 8.65781 5.75 8.66719 5.85 8.55937C5.95625 8.44375 6.06719 8.29375 6.11406 8.14219C6.1625 7.98125 6.14844 7.8375 6.2875 7.70938C6.44219 7.56563 6.58906 7.59531 6.775 7.59531C6.96563 7.59531 7.17031 7.52656 7.35 7.4625C7.47188 7.42344 7.55 7.29375 7.5125 7.17188Z" fill="#F07371"/>
<g id="Group_9">
<path id="Vector_12" d="M2.72187 9.29062C2.66875 9.29062 2.61719 9.28906 2.5625 9.28437C1.83906 9.22187 1.45937 8.70156 1.2875 8.13125C1.11562 7.56094 1.26094 6.94062 1.26094 6.94062C1.47969 8.62812 2.35937 8.79531 2.60312 8.81719C3.06406 8.85781 3.50469 8.65781 3.625 8.35312C3.81563 7.87187 3.23125 7.4 2.94531 7.10781C2.75625 6.91406 2.68594 6.58438 2.73594 6.32344C2.76094 6.18906 2.82031 6.05781 2.93125 5.97188C3.04062 5.8875 3.31562 5.81094 3.27812 6.05156C3.26719 6.12656 3.21875 6.18906 3.18906 6.25781C2.975 6.74531 3.73594 7.19687 3.94375 7.55781C4.11406 7.85 4.18906 8.20313 4.06094 8.525C3.87969 8.98438 3.33125 9.29062 2.72187 9.29062Z" fill="#F07371"/>
</g>
<g id="Group_10">
<path id="Vector_13" d="M2.55469 9.16562C2.68125 9.18125 2.81094 9.15937 2.925 9.10312C3.03437 9.05 3.13281 8.96562 3.25312 8.95625C3.31094 8.95312 3.38281 8.9875 3.37344 9.04375C3.37031 9.06406 3.50312 9.10156 3.48594 9.1125C3.175 9.30625 2.3875 9.49844 2.93125 10.8937C2.975 11.0047 2.94062 11.1297 2.83906 11.1906C2.72031 11.2625 2.5625 11.2156 2.50625 11.0891C2.35781 10.7625 2.28594 10.4016 2.29062 10.0422C2.29531 9.69219 2.33125 9.38594 2.09687 9.09375C2.07187 9.06406 2.04531 9.02187 2.06562 8.98906C2.07812 8.96875 2.10312 8.96094 2.12656 8.95469C2.22344 8.92969 2.32656 8.90312 2.425 8.92344C2.46875 8.93281 2.95781 9.20312 2.9625 9.19375" fill="#F07371"/>
</g>
<path id="Vector_14" d="M16.4937 11.4219C16.1703 11.3828 15.8375 11.4062 15.5312 11.5219C15.2719 11.6203 15.0781 11.8188 14.7797 11.7531C14.6016 11.7141 14.4438 11.6 14.3328 11.4547C14.0984 11.15 14.1297 10.8297 14.2172 10.4828C14.3047 10.1391 14.2953 9.74063 14.1406 9.41719C14.1 9.33125 14.0313 9.25469 13.9422 9.22344C13.8516 9.19219 13.7406 9.21875 13.6875 9.29844C13.6344 9.37969 13.6547 9.4875 13.6734 9.58281C13.7344 9.875 13.8125 10.1906 13.725 10.4766C13.6422 10.7484 13.5281 10.9922 13.3328 11.2016C12.9625 11.6 12.425 11.7828 11.9609 11.6656C11.6188 11.5797 11.3422 11.3406 11.1563 10.975C11.0906 10.6891 11.0219 10.3172 10.6672 10.2766C10.5953 10.2687 10.5172 10.2797 10.4625 10.325C10.4078 10.3719 10.3828 10.4469 10.3828 10.5187C10.3828 10.6984 10.5547 10.8328 10.5859 11.0094C10.6844 11.55 10.325 12.1688 9.77969 12.4688C9.35781 12.7016 8.2 12.8328 7.1625 11.9625C7.11875 11.925 7.11875 11.8531 7.07656 11.8141C7.04844 11.7891 7.0125 11.7734 6.97656 11.7672C6.82188 11.7375 6.66094 11.8844 6.675 12.0406C6.6875 12.1828 6.80469 12.2922 6.90938 12.3891C7.18125 12.6422 7.05938 12.7437 7.0125 12.8797C7.00156 12.9141 6.98125 12.9453 6.97812 12.9813C6.96875 13.0813 7.12188 13.0484 7.22188 13.0406C7.32188 13.0328 7.4125 12.9781 7.50938 12.95C7.63125 12.9156 8.18906 13.1203 8.29844 13.1438C8.61563 13.2125 8.725 13.2438 8.99844 13.2438C9.34062 13.2438 9.63125 13.4203 9.88125 13.1859C10.2375 12.8531 10.5141 12.6359 10.8297 12.5281C10.9859 12.475 11.1734 12.4484 11.3047 12.55C11.3984 12.6219 11.4406 12.7422 11.4734 12.8547C11.5406 13.0859 11.5906 13.3219 11.6891 13.5422C11.7875 13.7609 11.9437 13.9656 12.1625 14.0641C12.2312 14.0953 12.3094 14.1156 12.3844 14.0984C12.4594 14.0813 12.525 14.0172 12.5266 13.9422C12.5281 13.8906 12.5016 13.8437 12.4734 13.8016C12.3656 13.6297 12.2375 13.4703 12.1422 13.2922C12.0469 13.1141 11.9844 12.9063 12.0234 12.7078C12.0953 12.3406 12.5203 12.2375 12.825 12.1453C13.1172 12.0563 13.4094 11.8891 13.7234 11.9062C13.9203 11.9172 14.3375 12.1469 14.4625 12.3C14.4875 12.3313 14.4984 12.3703 14.5047 12.4109C14.5578 12.7406 14.3156 13.0375 14.0859 13.2781C14.0453 13.3203 14.0031 13.3844 14.0375 13.4328C14.05 13.45 14.0688 13.4594 14.0875 13.4656C14.2531 13.5297 14.4469 13.4734 14.5875 13.3656C14.8969 13.1312 15.0047 12.7297 15.2687 12.4516C15.4859 12.225 15.7781 12.0766 16.0734 11.9797C17.1297 11.6328 17.1844 12.4641 17.3734 12.9297C17.5625 13.3953 17.8422 13.0734 17.8453 12.9453C17.8562 12.3375 17.4672 11.5375 16.4937 11.4219Z" fill="#F07371"/>
<g id="Group_11">
<path id="Vector_15" d="M6.60156 13.8891C6.44062 13.8797 6.33437 13.7125 6.4 13.5641C6.50469 13.3266 6.70156 13.0906 6.95625 12.9094C7.34375 12.6344 7.73125 12.5844 8.12031 12.6953L8.2 13.0922C7.94844 13.0203 7.49844 13.1 7.22812 13.2922C7.03281 13.4313 6.89844 13.6016 6.83281 13.7438C6.79062 13.8359 6.70156 13.8953 6.60156 13.8891Z" fill="#F07371"/>
</g>
</g>
<path id="Vector_16" d="M16.7203 6.6875C16.6906 6.48906 16.5359 6.30469 16.3359 6.29844C16.2375 6.29531 16.1281 6.34687 16.1016 6.44219C16.0891 6.48437 16.0953 6.53125 16.0969 6.575C16.1094 6.9 15.8484 7.21406 15.5266 7.25937C15.1625 7.31094 14.8938 7.08594 14.6188 6.89844C14.3563 6.72031 14.0281 6.6 13.725 6.51406C12.9172 6.2875 12.2219 6.43906 11.6922 7.10625C11.4953 7.35469 11.3078 7.62656 11.0312 7.77969C10.5969 8.02031 9.67969 8.0375 9.40938 7.56562C9.05469 6.94844 9.04219 5.05156 10.1797 5.26719C10.5313 5.33437 10.7922 5.63906 10.8172 5.86563C10.8328 6.00938 10.7437 6.13438 10.6297 6.23125C10.5422 6.30625 10.5234 6.43281 10.5828 6.52969C10.6578 6.65313 10.8266 6.67969 10.9359 6.5875C11.2562 6.3125 11.3062 6.02344 11.2828 5.81406C11.2094 5.14687 10.4578 4.77031 9.86094 4.75313C9.72969 4.74844 9.57812 4.70625 9.52812 4.58281C9.50625 4.52969 9.50938 4.47188 9.50469 4.41563C9.47344 4.01719 9.06562 3.58438 8.74687 3.37813C8.62969 3.30156 8.47188 3.35156 8.41094 3.47656C8.35938 3.58438 8.4 3.71094 8.5 3.77656C8.80313 3.97656 8.9875 4.26719 9.04844 4.64219C9.11719 5.07344 9.02344 5.51406 8.84219 5.90625C8.75156 6.10312 8.64063 6.29375 8.51094 6.46875C8.4 6.62031 8.24219 6.72188 8.17031 6.90313C8.1625 6.92344 8.15469 6.94531 8.16094 6.96563C8.17187 7.00469 8.22031 7.01562 8.26094 7.01719C8.37656 7.02187 8.49219 6.99688 8.59531 6.94844C8.53594 7.17813 8.68906 7.40156 8.81562 7.60156C8.94219 7.80156 9.04375 8.07344 8.9 8.2625C8.89375 8.27031 8.88594 8.27813 8.87969 8.2875C8.57188 8.41719 8.275 8.59375 8.04375 8.8375C7.64531 9.25938 7.35 9.63906 6.76719 9.82656C6.25156 9.99375 5.67813 9.97344 5.17656 9.77188C5.07969 9.73281 4.98125 9.6875 4.87656 9.69063C4.77187 9.69375 4.66094 9.76719 4.65781 9.87188C4.65625 9.925 4.68281 9.97344 4.70625 10.0219C4.97188 10.5609 4.48438 10.9109 4.27656 11.3797C4.08125 11.8172 3.98125 12.2969 3.98125 12.7766C3.98125 13.3 4.16094 13.6812 4.80937 14.3469C5.10312 14.6469 5.4875 14.825 5.81094 14.9297C5.9125 14.9625 5.97656 14.8234 5.88594 14.7656C5.21875 14.3406 5.11406 13.9641 4.91094 13.5766C4.42344 12.6437 4.95625 11.2219 5.87344 10.5C6.22812 10.2219 6.73125 10.2438 7.15937 10.3906C7.61875 10.5484 7.89062 10.8859 8.23594 11.2C8.32969 11.2859 8.45 11.3781 8.57031 11.3406C8.67969 11.3078 8.73437 11.1781 8.72187 11.0656C8.70937 10.9531 8.64531 10.8531 8.58437 10.7578C8.51719 10.6531 8.45 10.5484 8.38125 10.4437C8.29219 10.3062 8.2 10.1625 8.17187 10C8.14062 9.82344 8.29687 9.2125 9.78125 8.83438C10.0328 8.77031 10.2891 8.79844 10.5422 8.87031C10.8828 8.96719 11.1266 9.21719 11.4125 9.4125C11.4922 9.46719 11.5797 9.525 11.6766 9.52812C11.7984 9.53281 11.9172 9.44063 11.9422 9.32031C11.9766 9.15469 11.8516 9.00625 11.7687 8.85938C11.4937 8.375 11.8141 7.72812 12.2187 7.41875C12.5812 7.14375 13.0578 7.04219 13.5094 7.08906C14.1969 7.15937 14.875 7.61875 15.0328 8.29063C15.0687 8.44219 15.1125 8.6375 15.2672 8.65781C15.4391 8.68125 15.5312 8.45156 15.5141 8.27812C15.4969 8.10469 15.4406 7.90938 15.5484 7.77188C15.5984 7.70938 15.6734 7.67344 15.7469 7.64063C15.9578 7.54844 16.1781 7.47188 16.3672 7.33906C16.5563 7.20781 16.7141 7.00625 16.7281 6.77656C16.7266 6.75 16.725 6.71875 16.7203 6.6875Z" fill="#EA6363"/>
</g>
<path id="Vector_17" d="M8.25937 7.01563C8.375 7.02031 8.49062 6.99531 8.59375 6.94687C8.53437 7.17656 8.6875 7.4 8.81406 7.6C8.90625 7.74687 9.03437 8.00781 8.89531 8.275C8.89531 8.275 9.10469 8.15781 9.44375 8.05938C9.78281 7.96094 10.1141 7.93906 10.1141 7.93906C9.87344 7.88906 9.51719 7.75312 9.40781 7.56406C9.05312 6.94687 9.04062 5.05 10.1781 5.26563C10.5297 5.33281 10.7906 5.6375 10.8156 5.86406C10.8312 6.00781 10.7422 6.13281 10.6281 6.22969C10.5406 6.30469 10.5219 6.43125 10.5812 6.52812C10.6562 6.65156 10.825 6.67813 10.9344 6.58594C11.2547 6.31094 11.3047 6.02188 11.2812 5.8125C11.2078 5.14531 10.4562 4.76875 9.85937 4.75156C9.72812 4.74687 9.57656 4.70469 9.52656 4.58125C9.50469 4.52812 9.50781 4.47031 9.50312 4.41406C9.47187 4.01563 9.06406 3.58281 8.74531 3.37656C8.62812 3.3 8.47031 3.35 8.40937 3.475C8.35781 3.58281 8.39844 3.70937 8.49844 3.775C8.80156 3.975 8.98594 4.26563 9.04687 4.64063C9.11562 5.07188 9.02187 5.5125 8.84062 5.90469C8.75 6.10156 8.63906 6.29219 8.50937 6.46719C8.39844 6.61875 8.24062 6.72031 8.16875 6.90156C8.16094 6.92187 8.15312 6.94375 8.15937 6.96406C8.17031 7.00312 8.21875 7.01406 8.25937 7.01563Z" fill="#F07371"/>
</g>
</svg>
